<svg width="31" height="33" viewBox="0 0 31 33" fill="none" xmlns="http://www.w3.org/2000/svg">
<path d="M11.6923 26.8624C4.76923 28.9312 4.76923 23.4144 2 22.7248M21.3846 31V25.6625C21.4366 25.0049 21.3474 24.3437 21.1229 23.7231C20.8985 23.1024 20.5441 22.5365 20.0831 22.0628C24.4308 21.5801 29 19.9389 29 12.4085C28.9996 10.4829 28.256 8.63115 26.9231 7.23651C27.5543 5.55183 27.5096 3.68971 26.7985 2.03695C26.7985 2.03695 25.1646 1.55424 21.3846 4.07816C18.2111 3.22143 14.8658 3.22143 11.6923 4.07816C7.91231 1.55424 6.27846 2.03695 6.27846 2.03695C5.56729 3.68971 5.52266 5.55183 6.15385 7.23651C4.81095 8.64149 4.06657 10.51 4.07692 12.4499C4.07692 19.9251 8.64615 21.5663 12.9938 22.1042C12.5383 22.5731 12.187 23.1323 11.9627 23.7453C11.7385 24.3584 11.6463 25.0116 11.6923 25.6625V31" stroke="white" stroke-width="3" stroke-linecap="round" stroke-linejoin="round"/>
</svg>
