<svg width="33" height="33" viewBox="0 0 33 33" fill="none" xmlns="http://www.w3.org/2000/svg">
<path d="M24.475 8.525H24.4895M9.25 2H23.75C27.7541 2 31 5.24594 31 9.25V23.75C31 27.7541 27.7541 31 23.75 31H9.25C5.24594 31 2 27.7541 2 23.75V9.25C2 5.24594 5.24594 2 9.25 2ZM22.3 15.5865C22.4789 16.7933 22.2728 18.0257 21.711 19.1086C21.1491 20.1914 20.2601 21.0695 19.1704 21.618C18.0807 22.1665 16.8457 22.3574 15.6413 22.1636C14.4368 21.9698 13.3242 21.4011 12.4615 20.5385C11.5989 19.6758 11.0302 18.5632 10.8364 17.3587C10.6426 16.1543 10.8335 14.9193 11.382 13.8296C11.9305 12.7399 12.8086 11.8509 13.8914 11.2891C14.9743 10.7272 16.2067 10.5211 17.4135 10.7C18.6444 10.8825 19.784 11.4561 20.664 12.336C21.5439 13.216 22.1175 14.3556 22.3 15.5865Z" stroke="white" stroke-width="3" stroke-linecap="round" stroke-linejoin="round"/>
</svg>
