<svg width="61" height="14" viewBox="0 0 61 14" fill="none" xmlns="http://www.w3.org/2000/svg">
<path d="M6.944 0.279999C8.032 0.279999 8.888 0.503999 9.512 0.951999C10.136 1.4 10.576 2 10.832 2.752C11.104 3.504 11.24 4.344 11.24 5.272V12.016C11.24 12.288 11.144 12.52 10.952 12.712C10.776 12.904 10.552 13 10.28 13C10.008 13 9.776 12.904 9.584 12.712C9.408 12.52 9.32 12.288 9.32 12.016V5.32C9.32 4.712 9.224 4.168 9.032 3.688C8.856 3.192 8.552 2.8 8.12 2.512C7.704 2.208 7.128 2.056 6.392 2.056C5.72 2.056 5.104 2.208 4.544 2.512C3.984 2.8 3.536 3.192 3.2 3.688C2.864 4.168 2.696 4.712 2.696 5.32V12.016C2.696 12.288 2.6 12.52 2.408 12.712C2.232 12.904 2.008 13 1.736 13C1.464 13 1.232 12.904 1.04 12.712C0.864 12.52 0.776 12.288 0.776 12.016V1.552C0.776 1.28 0.864 1.056 1.04 0.88C1.232 0.688 1.464 0.592 1.736 0.592C2.024 0.592 2.256 0.688 2.432 0.88C2.608 1.056 2.696 1.28 2.696 1.552V3.256L2.216 3.784C2.296 3.368 2.48 2.952 2.768 2.536C3.056 2.104 3.416 1.72 3.848 1.384C4.28 1.048 4.76 0.784 5.288 0.592C5.816 0.383999 6.368 0.279999 6.944 0.279999ZM25.0156 0.472C25.2876 0.472 25.5116 0.567999 25.6876 0.759999C25.8796 0.935999 25.9756 1.16 25.9756 1.432V12.016C25.9756 12.288 25.8796 12.52 25.6876 12.712C25.5116 12.904 25.2876 13 25.0156 13C24.7276 13 24.4956 12.904 24.3196 12.712C24.1436 12.52 24.0556 12.288 24.0556 12.016V9.736L24.5116 9.688C24.5116 10.04 24.3916 10.424 24.1516 10.84C23.9116 11.256 23.5836 11.648 23.1676 12.016C22.7516 12.368 22.2556 12.664 21.6796 12.904C21.1196 13.128 20.5116 13.24 19.8556 13.24C18.7676 13.24 17.7916 12.96 16.9276 12.4C16.0636 11.824 15.3756 11.048 14.8636 10.072C14.3676 9.096 14.1196 7.984 14.1196 6.736C14.1196 5.472 14.3676 4.36 14.8636 3.4C15.3756 2.424 16.0636 1.664 16.9276 1.12C17.7916 0.559999 18.7516 0.279999 19.8076 0.279999C20.4956 0.279999 21.1356 0.391999 21.7276 0.615999C22.3196 0.839999 22.8316 1.144 23.2636 1.528C23.7116 1.912 24.0556 2.336 24.2956 2.8C24.5516 3.264 24.6796 3.728 24.6796 4.192L24.0556 4.048V1.432C24.0556 1.16 24.1436 0.935999 24.3196 0.759999C24.4956 0.567999 24.7276 0.472 25.0156 0.472ZM20.0716 11.464C20.8716 11.464 21.5756 11.256 22.1836 10.84C22.8076 10.424 23.2876 9.864 23.6236 9.16C23.9756 8.44 24.1516 7.632 24.1516 6.736C24.1516 5.856 23.9756 5.064 23.6236 4.36C23.2876 3.64 22.8076 3.08 22.1836 2.68C21.5756 2.264 20.8716 2.056 20.0716 2.056C19.2876 2.056 18.5836 2.256 17.9596 2.656C17.3516 3.056 16.8716 3.608 16.5196 4.312C16.1676 5.016 15.9916 5.824 15.9916 6.736C15.9916 7.632 16.1596 8.44 16.4956 9.16C16.8476 9.864 17.3276 10.424 17.9356 10.84C18.5596 11.256 19.2716 11.464 20.0716 11.464ZM35.7018 0.279999C36.7898 0.279999 37.6458 0.503999 38.2698 0.951999C38.8938 1.4 39.3338 2 39.5898 2.752C39.8618 3.504 39.9978 4.344 39.9978 5.272V12.016C39.9978 12.288 39.9018 12.52 39.7098 12.712C39.5338 12.904 39.3098 13 39.0378 13C38.7658 13 38.5338 12.904 38.3418 12.712C38.1658 12.52 38.0778 12.288 38.0778 12.016V5.32C38.0778 4.712 37.9818 4.168 37.7898 3.688C37.6138 3.192 37.3098 2.8 36.8778 2.512C36.4618 2.208 35.8858 2.056 35.1498 2.056C34.4778 2.056 33.8618 2.208 33.3018 2.512C32.7418 2.8 32.2938 3.192 31.9578 3.688C31.6218 4.168 31.4538 4.712 31.4538 5.32V12.016C31.4538 12.288 31.3578 12.52 31.1658 12.712C30.9898 12.904 30.7658 13 30.4938 13C30.2218 13 29.9898 12.904 29.7978 12.712C29.6218 12.52 29.5338 12.288 29.5338 12.016V1.552C29.5338 1.28 29.6218 1.056 29.7978 0.88C29.9898 0.688 30.2218 0.592 30.4938 0.592C30.7818 0.592 31.0138 0.688 31.1898 0.88C31.3658 1.056 31.4538 1.28 31.4538 1.552V3.256L30.9738 3.784C31.0538 3.368 31.2378 2.952 31.5258 2.536C31.8138 2.104 32.1738 1.72 32.6058 1.384C33.0378 1.048 33.5178 0.784 34.0458 0.592C34.5738 0.383999 35.1258 0.279999 35.7018 0.279999ZM53.7734 0.472C54.0454 0.472 54.2694 0.567999 54.4454 0.759999C54.6374 0.935999 54.7334 1.16 54.7334 1.432V12.016C54.7334 12.288 54.6374 12.52 54.4454 12.712C54.2694 12.904 54.0454 13 53.7734 13C53.4854 13 53.2534 12.904 53.0774 12.712C52.9014 12.52 52.8134 12.288 52.8134 12.016V9.736L53.2694 9.688C53.2694 10.04 53.1494 10.424 52.9094 10.84C52.6694 11.256 52.3414 11.648 51.9254 12.016C51.5094 12.368 51.0134 12.664 50.4374 12.904C49.8774 13.128 49.2694 13.24 48.6134 13.24C47.5254 13.24 46.5494 12.96 45.6854 12.4C44.8214 11.824 44.1334 11.048 43.6214 10.072C43.1254 9.096 42.8774 7.984 42.8774 6.736C42.8774 5.472 43.1254 4.36 43.6214 3.4C44.1334 2.424 44.8214 1.664 45.6854 1.12C46.5494 0.559999 47.5094 0.279999 48.5654 0.279999C49.2534 0.279999 49.8934 0.391999 50.4854 0.615999C51.0774 0.839999 51.5894 1.144 52.0214 1.528C52.4694 1.912 52.8134 2.336 53.0534 2.8C53.3094 3.264 53.4374 3.728 53.4374 4.192L52.8134 4.048V1.432C52.8134 1.16 52.9014 0.935999 53.0774 0.759999C53.2534 0.567999 53.4854 0.472 53.7734 0.472ZM48.8294 11.464C49.6294 11.464 50.3334 11.256 50.9414 10.84C51.5654 10.424 52.0454 9.864 52.3814 9.16C52.7334 8.44 52.9094 7.632 52.9094 6.736C52.9094 5.856 52.7334 5.064 52.3814 4.36C52.0454 3.64 51.5654 3.08 50.9414 2.68C50.3334 2.264 49.6294 2.056 48.8294 2.056C48.0454 2.056 47.3414 2.256 46.7174 2.656C46.1094 3.056 45.6294 3.608 45.2774 4.312C44.9254 5.016 44.7494 5.824 44.7494 6.736C44.7494 7.632 44.9174 8.44 45.2534 9.16C45.6054 9.864 46.0854 10.424 46.6934 10.84C47.3174 11.256 48.0294 11.464 48.8294 11.464ZM58.8676 12.976C58.5316 12.976 58.2676 12.88 58.0756 12.688C57.8996 12.496 57.8116 12.232 57.8116 11.896V11.416C57.8116 11.064 57.8996 10.792 58.0756 10.6C58.2676 10.408 58.5316 10.312 58.8676 10.312H59.0596C59.4116 10.312 59.6756 10.408 59.8516 10.6C60.0276 10.792 60.1156 11.064 60.1156 11.416V11.896C60.1156 12.232 60.0276 12.496 59.8516 12.688C59.6756 12.88 59.4116 12.976 59.0596 12.976H58.8676Z" fill="black"/>
</svg>
